<svg width="414" height="414" xmlns="http://www.w3.org/2000/svg">
    <style type="text/css">.st0{fill:#00ACAB;}</style>

    <title>Dataiku</title>
    <g>
        <title>background</title>
        <rect fill="none" id="canvas_background" height="416" width="416" y="-1" x="-1"/>
    </g>
    <g>
        <title>Layer 1</title>
        <g id="svg_1">
            <path id="svg_2" d="m282,106c-4.9,0 -8.8,3.9 -8.8,8.8c0,4.9 3.9,8.8 8.8,8.8s8.8,-3.9 8.8,-8.8l0,0c0.1,-4.9 -3.9,-8.8 -8.8,-8.8" class="st0"/>
            <path id="svg_3"
                  d="m207.1,1c-113.8,0 -206.1,92.3 -206.1,206.1s92.2,206.1 206.1,206.1s206.1,-92.3 206.1,-206.1s-92.3,-206.1 -206.1,-206.1m116.1,271.9l-102.1,0l0,-16.4l102.1,0l0,16.4zm-16.2,-156.6c0,0 -7.4,10.8 -3.5,36.3c7.2,47.9 -17.9,90.6 -62.6,90.6l-33,0l0,13.2l-26.3,0c-6.5,0 -19.5,-1 -25.3,4.6c-58.6,56.2 -71.1,72.3 -75.2,74.5c-2.6,1.4 -3.3,-1.6 -3.3,-1.6l169.7,-209.2c0,-37.7 41.2,-47.8 57.6,-19.8l21.9,-7.6l-20,19z"
                  class="st0"/>
        </g>
    </g>
</svg>